<?xml version="1.0" standalone="no"?>
<!DOCTYPE svg PUBLIC "-//W3C//DTD SVG 20010904//EN"
 "http://www.w3.org/TR/2001/REC-SVG-20010904/DTD/svg10.dtd">
<svg version="1.0" xmlns="http://www.w3.org/2000/svg"
 width="1242.000000pt" height="1242.000000pt" viewBox="0 0 1242.000000 1242.000000"
 preserveAspectRatio="xMidYMid meet">
<metadata>
Created by potrace 1.14, written by Peter Selinger 2001-2017
</metadata>
<g transform="translate(0.000000,1242.000000) scale(0.100000,-0.100000)"
fill="#000000" stroke="none">
<path d="M2290 6212 l0 -2982 605 0 605 0 0 1542 0 1543 813 -812 812 -812
1535 1526 c929 923 1567 1549 1615 1586 101 76 235 140 351 168 122 29 322 23
467 -15 209 -54 415 -177 609 -365 l118 -113 358 350 c196 192 366 359 377
371 24 28 22 32 -105 182 -321 379 -732 644 -1169 753 -297 75 -672 76 -985 1
-233 -55 -487 -169 -646 -289 -55 -42 -512 -492 -1300 -1280 l-1215 -1216
-1422 1422 -1423 1423 0 -2983z"/>
<path d="M6933 5661 l-522 -516 43 -122 c395 -1099 1246 -1792 2203 -1793 712
0 1392 398 1852 1087 33 50 61 95 61 101 0 11 -737 742 -748 742 -4 0 -37 -34
-72 -76 -105 -124 -348 -354 -450 -426 -403 -288 -831 -301 -1181 -38 -95 71
-234 221 -307 330 -200 299 -316 673 -350 1131 l-7 96 -522 -516z"/>
</g>
</svg>
